#!OML:ASF E:\acrobat2\Project_11_07_03\Capture day 1\Session 1\Acrobat.ASF
:FULLY-SPECIFIED
:DEGREES
459
root 8.27422 8.97755 5.79347 -33.5841 7.93072 8.05763
lowerback 24.5338 1.22451 -1.25139
upperback 9.55441 1.26646 -2.01799
thorax -3.0904 0.677421 -1.80013
lowerneck -8.34009 -1.42052 -1.50117
upperneck 1.83849 -1.77107 0.852843
head 2.02986 -0.870021 0.451963
rclavicle -7.33018e-015 1.90833e-014
rhumerus 54.8648 13.8036 -14.3718
rradius 52.5683
rwrist 0.204092
rhand -19.0151 -22.2303
rfingers 7.12502
rthumb 7.29053 -52.0847
lclavicle -7.33018e-015 1.90833e-014
lhumerus 75.3587 5.36548 4.29077
lradius 59.079
lwrist -5.92879
lhand -32.0674 -41.4572
lfingers 7.12502
lthumb -5.31379 -11.5439
rfemur -63.5046 -11.7571 21.1996
rtibia 39.0083
rfoot -171.592 11.0681
rtoes 22.6802
lfemur -71.7287 15.9444 -14.2317
ltibia 69.1392
lfoot -179.175 12.1411
ltoes 30.0392
460
root 8.19196 9.09769 5.77809 -34.1544 8.58204 6.60154
lowerback 24.3702 0.989863 -1.08044
upperback 9.57275 1.02733 -1.67246
thorax -3.00135 0.556326 -1.45728
lowerneck -7.92101 -1.58898 -1.34416
upperneck 2.37495 -2.0359 1.18477
head 2.13701 -0.992647 0.520461
rclavicle 1.0635e-014 2.3059e-014
rhumerus 52.8768 12.9624 -15.9556
rradius 51.0698
rwrist -1.84827
rhand -18.8457 -22.8857
rfingers 7.12502
rthumb 7.45407 -52.7343
lclavicle 1.0635e-014 2.3059e-014
lhumerus 75.0173 4.80982 4.02131
lradius 58.1113
lwrist -5.69436
lhand -31.1357 -40.8664
lfingers 7.12502
lthumb -4.41415 -10.9324
rfemur -63.4731 -12.5327 21.7164
rtibia 40.8314
rfoot -172.87 8.34686
rtoes 10.5167
lfemur -69.4644 15.326 -13.0707
ltibia 65.9362
lfoot -177.75 12.2497
ltoes 30.8118
461
root 8.11295 9.20717 5.7552 -34.6523 8.73987 4.73247
lowerback 24.1626 0.634853 -0.306083
upperback 9.52883 0.769654 -1.17275
thorax -2.95243 0.434601 -1.28969
lowerneck -7.3461 -1.69957 -1.66106
upperneck 2.8167 -2.19503 1.81253
head 2.19575 -1.05936 0.77139
rclavicle -1.97542e-014 1.64991e-014
rhumerus 51.1406 12.0634 -17.8846
rradius 49.4881
rwrist -3.36074
rhand -18.8173 -23.569
rfingers 7.12502
rthumb 7.48153 -53.4167
lclavicle -1.97542e-014 1.64991e-014
lhumerus 74.369 4.13897 3.82511
lradius 56.9962
lwrist -5.66509
lhand -30.8111 -41.2819
lfingers 7.12502
lthumb -4.10076 -11.3416
rfemur -63.7748 -13.025 23.0481
rtibia 43.2315
rfoot -175.128 8.07104
rtoes 8.51205
lfemur -67.2418 15.1068 -11.3557
ltibia 62.815
lfoot -176.076 12.2734
ltoes 31.865
462
root 8.03925 9.30611 5.72954 -35.0476 8.95324 3.27489
lowerback 23.9491 0.380611 0.17742
upperback 9.52318 0.569028 -0.793978
thorax -2.8586 0.338216 -1.10303
lowerneck -7.02052 -1.82562 -1.94669
upperneck 3.31883 -2.37727 2.37146
head 2.32175 -1.1383 0.994506
rclavicle -6.93262e-015 2.38542e-015
rhumerus 49.4322 10.7386 -20.0046
rradius 47.8958
rwrist -4.71515
rhand -18.8596 -24.1107
rfingers 7.12502
rthumb 7.44071 -53.9599
lclavicle -6.93262e-015 2.38542e-015
lhumerus 73.7142 3.62042 3.80433
lradius 55.7775
lwrist -5.47896
lhand -30.6422 -41.9595
lfingers 7.12502
lthumb -3.93761 -12.0161
rfemur -64.4379 -13.3621 23.9257
rtibia 46.1112
rfoot -176.897 9.6279
rtoes 9.35594
lfemur -64.9445 15.0407 -10.1699
ltibia 59.8489
lfoot -174.206 12.119
ltoes 33.0199
463
root 7.966 9.39014 5.69528 -35.4309 9.21712 2.1471
lowerback 23.8502 0.234503 0.428449
upperback 9.55617 0.447592 -0.590893
thorax -2.77657 0.280477 -0.995467
lowerneck -6.77376 -2.01516 -1.64596
upperneck 3.77662 -2.67368 2.44416
head 2.43149 -1.2795 0.954354
rclavicle 3.03147e-014 -7.95139e-016
rhumerus 47.6677 8.92033 -22.4156
rradius 46.4135
rwrist -6.02943
rhand -18.7883 -24.8901
rfingers 7.12502
rthumb 7.5095 -54.7368
lclavicle 3.03147e-014 -7.95139e-016
lhumerus 73.1911 3.24687 3.80422
lradius 54.3713
lwrist -5.1693
lhand -30.9455 -42.4908
lfingers 7.12502
lthumb -4.23053 -12.553
rfemur -65.2511 -13.5431 24.4513
rtibia 49.2452
rfoot -179.244 12.0817
rtoes 13.5701
lfemur -62.605 15.0795 -9.39384
ltibia 57.02
lfoot -172.39 11.9308
ltoes 31.9607
464
root 7.89568 9.46333 5.64896 -35.655 9.52715 1.25814
lowerback 23.8198 0.125142 0.475512
upperback 9.54684 0.325062 -0.44531
thorax -2.77519 0.218007 -0.834407
lowerneck -6.47284 -2.18884 -1.55953
upperneck 4.13493 -2.93446 2.62573
head 2.50368 -1.40282 0.988658
rclavicle -7.76503e-017 -3.97569e-015
rhumerus 46.0866 6.84709 -24.6925
rradius 45.0068
rwrist -7.42933
rhand -18.8384 -25.7598
rfingers 7.12502
rthumb 7.46112 -55.6082
lclavicle -7.76503e-017 -3.97569e-015
lhumerus 72.6325 2.86643 4.11059
lradius 52.7236
lwrist -4.96435
lhand -31.2808 -42.6945
lfingers 7.12502
lthumb -4.55428 -12.7634
rfemur -66.2482 -13.6759 24.7251
rtibia 52.5979
rfoot -182.539 13.9027
rtoes 16.129
lfemur -60.3892 15.1724 -8.97727
ltibia 54.3026
lfoot -170.465 11.5183
ltoes 29.789
465
root 7.82801 9.52438 5.59798 -35.6831 9.7532 0.477655
lowerback 23.7061 0.0103671 0.462137
upperback 9.56098 0.183679 -0.239849
thorax -2.70759 0.143436 -0.569362
lowerneck -6.31342 -2.25859 -1.96387
upperneck 4.38109 -3.03104 3.15803
head 2.58041 -1.44097 1.22908
rclavicle -8.96443e-015 -7.72154e-015
rhumerus 44.9127 4.52432 -26.8002
rradius 43.6489
rwrist -8.89304
rhand -18.5623 -26.4271
rfingers 7.12502
rthumb 7.72762 -56.2659
lclavicle -8.96443e-015 -7.72154e-015
lhumerus 71.7851 2.68475 4.78644
lradius 51.0211
lwrist -4.78496
lhand -31.5562 -42.5075
lfingers 7.12502
lthumb -4.82018 -12.5824
rfemur -67.4416 -13.6656 24.9544
rtibia 56.2528
rfoot -185.571 15.2995
rtoes 16.6703
lfemur -58.3644 15.3928 -8.71113
ltibia 51.7068
lfoot -168.072 10.3912
ltoes 29.9573
466
root 7.76671 9.5726 5.54838 -35.5694 10.0324 -0.0630907
lowerback 23.3078 -0.134766 0.338096
upperback 9.7239 -0.0282723 -0.156125
thorax -2.33716 0.0344187 -0.354599
lowerneck -6.18831 -2.23132 -2.09964
upperneck 4.32734 -3.00234 3.48272
head 2.5493 -1.42018 1.36075
rclavicle 2.44536e-014 -2.34317e-014
rhumerus 44.1919 1.67845 -29.636
rradius 42.3618
rwrist -9.78684
rhand -17.5339 -27.2447
rfingers 7.12502
rthumb 8.72019 -57.0445
lclavicle 2.44536e-014 -2.34317e-014
lhumerus 70.63 2.90668 5.44683
lradius 49.3598
lwrist -4.33007
lhand -31.6262 -42.226
lfingers 7.12502
lthumb -4.88776 -12.3024
rfemur -68.7817 -13.6423 24.9693
rtibia 60.0301
rfoot -187.412 16.7442
rtoes 17.6389
lfemur -56.4465 15.7402 -8.87545
ltibia 49.3072
lfoot -165.77 9.11858
ltoes 28.7957
467
root 7.70963 9.60923 5.49776 -35.3621 10.3787 -0.55686
lowerback 22.9343 -0.304261 0.304917
upperback 9.80039 -0.258161 -0.198834
thorax -2.0722 -0.0797982 -0.325921
lowerneck -6.24244 -2.21074 -1.84361
upperneck 4.57121 -3.00034 3.43982
head 2.63439 -1.41393 1.30176
rclavicle -2.36678e-015 3.77691e-015
rhumerus 43.5949 -1.68122 -33.4993
rradius 41.1397
rwrist -9.90518
rhand -16.5348 -28.0076
rfingers 7.12502
rthumb 9.68417 -57.765
lclavicle -2.36678e-015 3.77691e-015
lhumerus 69.6049 3.1401 6.20039
lradius 47.5987
lwrist -3.73765
lhand -31.3289 -41.6515
lfingers 7.12502
lthumb -4.60072 -11.7214
rfemur -70.1576 -13.7234 24.9532
rtibia 63.8784
rfoot -188.801 17.8686
rtoes 17.8241
lfemur -54.6785 16.1789 -9.27403
ltibia 47.093
lfoot -163.463 7.91391
ltoes 26.303
468
root 7.65164 9.63556 5.44247 -35.0422 10.9291 -0.842029
lowerback 23.0841 -0.412653 0.135362
upperback 9.45449 -0.442698 -0.349773
thorax -2.52447 -0.174725 -0.345135
lowerneck -6.46018 -2.37308 -1.92377
upperneck 5.50101 -3.24588 3.60951
head 3.00419 -1.52334 1.36082
rclavicle 5.37961e-015 -7.95139e-015
rhumerus 42.1989 -3.69389 -34.6646
rradius 39.8957
rwrist -12.8852
rhand -16.9682 -28.403
rfingers 7.12502
rthumb 9.26599 -58.1794
lclavicle 5.37961e-015 -7.95139e-015
lhumerus 68.8041 2.89855 7.23572
lradius 45.7425
lwrist -3.2685
lhand -31.4715 -40.5742
lfingers 7.12502
lthumb -4.73846 -10.6472
rfemur -71.5322 -13.9124 24.6232
rtibia 67.7964
rfoot -190.182 18.3376
rtoes 15.9886
lfemur -53.0732 16.499 -10.0267
ltibia 45.0395
lfoot -161.012 5.91809
ltoes 28.5812
469
root 7.59323 9.64845 5.37968 -34.6565 11.6406 -0.881066
lowerback 22.8809 -0.381798 -0.451733
upperback 9.42964 -0.52493 -0.38944
thorax -2.44677 -0.228105 -0.0341422
lowerneck -6.46697 -2.58783 -2.14106
upperneck 5.78295 -3.53239 3.75675
head 3.12089 -1.66306 1.43466
rclavicle -3.3048e-015 -3.18055e-015
rhumerus 41.0589 -6.26008 -35.4496
rradius 38.968
rwrist -16.1928
rhand -17.3803 -28.8533
rfingers 7.12502
rthumb 8.86838 -58.647
lclavicle -3.3048e-015 -3.18055e-015
lhumerus 68.094 3.19918 8.81487
lradius 43.9297
lwrist -2.51433
lhand -31.3756 -39.1073
lfingers 7.12502
lthumb -4.64583 -9.17827
rfemur -72.825 -14.1574 23.9409
rtibia 71.7759
rfoot -191.298 18.3119
rtoes 14.9503
lfemur -51.5655 16.7506 -11.1931
ltibia 43.0558
lfoot -159.354 4.11409
ltoes 29.9512
470
root 7.5337 9.64324 5.3116 -34.3157 12.2167 -1.11686
lowerback 22.8613 -0.385324 -0.789753
upperback 9.35184 -0.598531 -0.391723
thorax -2.51761 -0.271616 0.173902
lowerneck -6.19218 -2.72724 -2.08322
upperneck 5.69174 -3.72901 3.80867
head 3.04383 -1.76099 1.43398
rclavicle 1.38652e-014 1.78906e-015
rhumerus 40.1004 -9.19437 -36.7776
rradius 38.1528
rwrist -19.0605
rhand -17.4839 -29.5109
rfingers 7.12502
rthumb 8.76838 -59.3087
lclavicle 1.38652e-014 1.78906e-015
lhumerus 67.378 3.57363 10.4465
lradius 42.17
lwrist -1.20977
lhand -30.5566 -37.4814
lfingers 7.12502
lthumb -3.85494 -7.53657
rfemur -73.9137 -14.3299 23.5019
rtibia 76.0411
rfoot -191.875 17.8605
rtoes 14.182
lfemur -50.1321 17.1674 -12.1993
ltibia 41.1843
lfoot -158.674 3.90532
ltoes 31.4325
471
root 7.47693 9.62809 5.24296 -33.8217 12.8211 -1.30865
lowerback 22.7762 -0.33028 -1.01611
upperback 9.17351 -0.578606 -0.516157
thorax -2.66837 -0.262491 0.164936
lowerneck -5.80052 -2.87228 -1.63728
upperneck 5.56839 -3.96447 3.84217
head 2.92375 -1.87191 1.35839
rclavicle 1.14798e-014 -6.75868e-015
rhumerus 39.0482 -12.6998 -38.6475
rradius 37.4221
rwrist -21.2876
rhand -17.7779 -30.4279
rfingers 7.12502
rthumb 8.48471 -60.2375
lclavicle 1.14798e-014 -6.75868e-015
lhumerus 66.969 3.92894 11.9884
lradius 40.3654
lwrist 0.26543
lhand -29.7865 -35.4707
lfingers 7.12502
lthumb -3.11127 -5.51369
rfemur -74.9944 -14.5183 23.0196
rtibia 81.9612
rfoot -180.114 -13.9308
rtoes 12.2053
lfemur -48.8763 17.6186 -13.3895
ltibia 39.5439
lfoot -158.89 4.47782
ltoes 30.1817
472
root 7.4197 9.60491 5.17111 -33.207 13.2909 -1.61302
lowerback 22.5724 -0.270197 -1.06817
upperback 9.03937 -0.51122 -0.589456
thorax -2.71395 -0.227393 0.0991388
lowerneck -5.81541 -2.96432 -1.40176
upperneck 5.6892 -4.13184 4.12922
head 2.97527 -1.9381 1.40322
rclavicle -2.11209e-015 2.18663e-014
rhumerus 38.2361 -16.4125 -40.2964
rradius 36.6872
rwrist -23.4206
rhand -18.472 -31.3077
rfingers 7.12502
rthumb 7.81481 -61.1433
lclavicle -2.11209e-015 2.18663e-014
lhumerus 66.4817 4.61026 13.3844
lradius 38.7405
lwrist 2.104
lhand -29.1709 -33.1084
lfingers 7.12502
lthumb -2.51679 -3.14351
rfemur -75.982 -14.5793 22.7102
rtibia 87.6204
rfoot -163.769 -45.3459
rtoes 11.3745
lfemur -47.8048 18.1402 -14.456
ltibia 37.9079
lfoot -160.127 4.74239
ltoes 30.606
473
root 7.35477 9.56453 5.09668 -32.7605 13.4044 -2.36363
lowerback 22.5406 -0.368332 -0.828868
upperback 9.05403 -0.575673 -0.344491
thorax -2.68194 -0.258777 0.240353
lowerneck -6.70944 -2.90643 -2.153
upperneck 6.20233 -4.05869 4.92189
head 3.36853 -1.87283 1.79755
rclavicle -3.26752e-014 1.31198e-014
rhumerus 38.2039 -19.8498 -41.6032
rradius 35.9538
rwrist -25.6922
rhand -19.0102 -31.9286
rfingers 7.12502
rthumb 7.29531 -61.7829
lclavicle -3.26752e-014 1.31198e-014
lhumerus 65.4388 5.91704 15.112
lradius 37.19
lwrist 3.90766
lhand -28.7099 -30.9145
lfingers 7.12502
lthumb -2.07155 -0.944843
rfemur -76.6268 -14.2821 22.9439
rtibia 89.0452
rfoot -112.393 -68.7616
rtoes 11.6843
lfemur -46.6962 18.9165 -14.8137
ltibia 36.2771
lfoot -162.021 4.32366
ltoes 32.5663
